<?xml version="1.0" encoding="UTF-8"?>
<svg width="1024px" height="1024px" viewBox="0 0 1024 1024" version="1.1" xmlns="http://www.w3.org/2000/svg" xmlns:xlink="http://www.w3.org/1999/xlink">
    <!-- Generator: Sketch 56.3 (81716) - https://sketch.com -->
    <title>로고</title>
    <desc>Created with Sketch.</desc>
    <defs>
        <linearGradient x1="0%" y1="100%" x2="100%" y2="0%" id="linearGradient-1">
            <stop stop-color="#403FF2" offset="0%"></stop>
            <stop stop-color="#C947D8" offset="100%"></stop>
        </linearGradient>
        <linearGradient x1="12.2486619%" y1="74.5820165%" x2="82.9651882%" y2="74.5820165%" id="linearGradient-2">
            <stop stop-color="#FFFFFF" stop-opacity="0" offset="0%"></stop>
            <stop stop-color="#FFFFFF" stop-opacity="0.1" offset="100%"></stop>
        </linearGradient>
        <linearGradient x1="84.8603271%" y1="0%" x2="84.8603271%" y2="71.3052156%" id="linearGradient-3">
            <stop stop-color="#FFFFFF" stop-opacity="0" offset="0%"></stop>
            <stop stop-color="#FFFFFF" stop-opacity="0.1" offset="100%"></stop>
        </linearGradient>
        <linearGradient x1="1.36601361%" y1="93.6010572%" x2="58.1890906%" y2="32.9416863%" id="linearGradient-4">
            <stop stop-color="#FFFFFF" stop-opacity="0" offset="0%"></stop>
            <stop stop-color="#FFFFFF" stop-opacity="0.0518568841" offset="100%"></stop>
        </linearGradient>
        <linearGradient x1="-46.0923062%" y1="20.1252834%" x2="7.4427311%" y2="49.0545302%" id="linearGradient-5">
            <stop stop-color="#FFFFFF" stop-opacity="0.15" offset="0%"></stop>
            <stop stop-color="#FFFFFF" stop-opacity="0" offset="100%"></stop>
        </linearGradient>
    </defs>
    <g id="Page-1" stroke="none" stroke-width="1" fill="none" fill-rule="evenodd">
        <g id="로고">
            <path d="M105.025641,0 L918.974359,0 C976.978419,0 1024,47.0215811 1024,105.025641 L1024,918.974359 C1024,976.978419 976.978419,1024 918.974359,1024 L105.025641,1024 C47.0215811,1024 0,976.978419 0,918.974359 L0,105.025641 C0,47.0215811 47.0215811,0 105.025641,0 Z" id="Mask" fill="url(#linearGradient-1)"></path>
            <path d="M1024,743.839946 C705.331689,945.499208 320.138748,959.085074 -3.84311678e-05,812.565478 L-3.84311678e-05,105.025641 C-3.84311678e-05,47.0215811 47.0215811,0 105.025641,0 L918.974359,0 C976.978419,0 1024,47.0215811 1024,105.025641 L1024,743.839946 L1024,743.839946 Z" id="Path" fill="url(#linearGradient-2)"></path>
            <path d="M888.334152,0 C1010.40307,349.194298 942.587421,737.322377 714.726795,1024.00007 L105.025641,1024.00007 C47.0215811,1024.00007 5.68434189e-14,976.978419 5.68434189e-14,918.974359 L5.68434189e-14,105.025641 C5.68434189e-14,47.0215811 47.0215811,0 105.025641,0 L888.334152,0 L888.334152,0 Z" id="Path" fill="url(#linearGradient-3)"></path>
            <path d="M1024,511.491697 C828.438947,780.981768 510.934673,956.232421 152.498417,956.232421 C101.945783,956.232421 52.2073405,952.746454 3.51035866,946.001788 C1.22034586,937.378124 0,928.318755 0,918.974359 L0,105.025641 C0,47.0215811 47.0215811,0 105.025641,0 L918.974359,0 C976.978419,0 1024,47.0215811 1024,105.025641 L1024,511.491697 L1024,511.491697 Z" id="Path" fill="url(#linearGradient-4)"></path>
            <path d="M1024,751.709091 L0,751.709091 L0,105.025641 C0,47.0215811 47.0215811,0 105.025641,0 L918.974359,0 C976.978419,0 1024,47.0215811 1024,105.025641 L1024,751.709091 Z" id="Path" fill="url(#linearGradient-5)"></path>
            <path d="M1024,751.709091 L0,751.709091 L0,105.025641 C0,47.0215811 47.0215811,0 105.025641,0 L918.974359,0 C976.978419,0 1024,47.0215811 1024,105.025641 L1024,751.709091 Z" id="Path" fill="url(#linearGradient-5)"></path>
            <path d="M469.348232,285 C459.700407,285.037486 448.865536,300.218182 440.03809,330.54474 C436.446455,342.88375 400.179633,463.906781 331.237624,693.613835 C321.488784,723.078422 302.788107,738.207143 275.135592,739 L223,739 L341.084524,330.494789 C351.559423,300.280422 370.749475,285.116369 398.654679,285 L410.928319,285 L469.348232,285 Z M454.020408,381.537761 C462.635629,351.438523 467.5358,334.260261 468.720919,330.002974 C476.213518,303.087412 485.216341,288.086438 493.599261,285 C520.266797,288.092093 535.566719,303.075655 539.499027,329.950686 C565.121256,542.05474 579.661429,663.25564 583.119547,693.553384 C586.577664,723.851128 593.952781,739 605.244898,739 L553.375877,739 L552.931614,739 C553.032001,739 553.132343,739 553.23264,739 C523.368299,738.074247 505.062678,722.926811 498.315777,693.553384 C477.477853,542.797608 462.712731,438.792401 454.020408,381.537761 Z M630.507761,739 C620.741265,736.206191 614.247713,721.221455 611.027104,694.045791 C609.792907,683.631577 607.198838,662.474299 603.244898,630.573959 C620.655269,571.369376 650.065755,471.322863 691.476356,330.434422 C701.393699,300.938507 720.417606,285.7937 748.548078,285 L801,285 L680.874456,693.939557 C671.277193,721.181004 654.488295,736.201151 630.507761,739 L630.507761,739 Z" id="Combined-Shape" fill="#FFFFFF"></path>
        </g>
    </g>
</svg>